<?xml version="1.0" standalone="no"?>
<!DOCTYPE svg PUBLIC "-//W3C//DTD SVG 20010904//EN"
 "http://www.w3.org/TR/2001/REC-SVG-20010904/DTD/svg10.dtd">
<svg version="1.0" xmlns="http://www.w3.org/2000/svg"
 width="417.000000pt" height="418.000000pt" viewBox="0 0 417.000000 418.000000"
 preserveAspectRatio="xMidYMid meet">
<metadata>
Created by potrace 1.16, written by Peter Selinger 2001-2019
</metadata>
<g transform="translate(0.000000,418.000000) scale(0.100000,-0.100000)"
fill="#000000" stroke="none">
<path d="M2665 3708 c-3 -7 -23 -65 -44 -130 -35 -103 -37 -119 -25 -136 17
-25 221 -95 260 -90 33 4 49 27 41 60 -5 18 -18 28 -49 38 -24 8 -46 19 -50
24 -15 23 245 116 325 116 91 0 111 -85 57 -249 -16 -50 -45 -125 -64 -167
-46 -99 -135 -254 -146 -254 -5 0 -29 31 -55 68 -97 146 -287 307 -467 398
-203 102 -385 144 -633 144 -133 0 -178 -4 -266 -24 -101 -23 -226 -68 -297
-108 -18 -10 -38 -18 -44 -18 -6 0 -40 22 -77 49 -216 159 -431 251 -587 251
-126 0 -190 -47 -214 -159 -31 -146 50 -373 230 -650 l69 -106 -35 -98 c-57
-164 -77 -281 -78 -452 -1 -210 31 -363 111 -543 14 -30 22 -60 19 -68 -3 -7
-25 -44 -49 -81 -108 -169 -149 -249 -194 -382 -30 -90 -42 -229 -24 -284 18
-53 79 -104 137 -113 156 -23 396 59 645 222 38 25 78 45 87 46 9 0 55 -16
102 -36 47 -19 112 -42 145 -51 89 -23 257 -45 347 -45 149 0 365 43 497 98
l70 30 73 -45 c115 -72 246 -139 348 -179 118 -46 251 -58 325 -30 60 23 102
73 111 132 12 80 -25 238 -90 388 l-17 38 30 -6 c17 -3 45 -9 61 -12 18 -4 36
-1 45 6 18 15 20 64 3 77 -17 12 -228 83 -248 83 -8 0 -21 -4 -28 -9 -15 -9
-91 -224 -92 -257 0 -27 19 -44 51 -44 31 0 42 12 58 63 7 20 17 37 22 37 5 0
23 -29 39 -65 70 -156 90 -285 50 -325 -42 -42 -202 -17 -359 56 -103 47 -261
135 -261 145 0 5 27 26 60 49 166 113 281 240 409 452 65 109 131 317 156 492
19 137 19 195 0 339 -17 128 -40 212 -91 333 l-35 81 72 118 c164 271 241 495
209 610 -16 58 -60 110 -108 130 -79 34 -221 13 -381 -55 -39 -17 -74 -30 -80
-30 -5 0 -3 23 6 55 9 29 13 61 10 70 -8 19 -85 21 -92 3z m-1975 -160 c104
-32 421 -203 419 -226 0 -4 -34 -32 -76 -62 -94 -68 -219 -201 -286 -302 -29
-43 -55 -78 -58 -78 -23 0 -188 304 -230 422 -51 146 -48 235 11 266 32 16
130 7 220 -20z m1443 -152 c232 -63 413 -164 561 -312 l68 -69 -5 -71 c-6 -83
-27 -138 -57 -154 -26 -14 -124 -2 -255 30 -102 25 -178 25 -233 0 -54 -25
-86 -59 -122 -134 -33 -70 -68 -96 -129 -96 -70 0 -145 83 -201 224 -42 105
-54 122 -116 152 -47 23 -63 26 -114 21 -65 -6 -142 -43 -160 -78 -6 -11 -26
-29 -43 -39 -95 -59 -212 24 -275 193 l-22 59 29 27 c90 84 294 192 448 236
124 36 197 44 373 41 130 -3 171 -8 253 -30z m-1154 -430 c40 -81 124 -169
193 -201 95 -44 162 -30 254 56 63 58 64 59 122 59 71 0 78 -6 121 -115 54
-135 127 -228 207 -261 43 -18 145 -18 188 0 46 19 91 70 125 143 48 100 90
111 252 68 159 -43 199 -49 247 -36 60 17 123 77 146 140 10 28 22 51 26 51
10 0 40 -45 40 -60 0 -23 -254 -357 -355 -466 -5 -6 -21 -24 -34 -40 -93 -111
-294 -324 -435 -462 -91 -89 -166 -165 -166 -169 0 -11 53 -63 63 -63 17 0
286 261 431 419 165 179 288 325 419 495 132 171 135 174 147 156 16 -23 59
-169 75 -255 8 -42 15 -112 15 -155 l0 -78 -47 -17 c-112 -40 -129 -48 -164
-76 -44 -35 -81 -108 -103 -203 -20 -84 -59 -142 -141 -207 -72 -58 -100 -109
-100 -181 0 -39 10 -67 50 -143 58 -110 59 -110 -35 -173 -79 -53 -104 -60
-144 -38 -69 37 -336 246 -481 377 -355 319 -630 600 -888 905 -104 124 -247
317 -247 334 0 34 156 260 180 260 4 0 21 -29 39 -64z m-158 -458 c389 -501
889 -991 1402 -1371 42 -32 77 -59 77 -62 0 -7 -159 -55 -230 -70 -200 -41
-431 -23 -645 50 -73 25 -83 38 -48 60 103 67 343 259 343 276 0 12 -52 59
-66 59 -6 0 -69 -46 -141 -103 -72 -57 -163 -125 -202 -152 -71 -48 -71 -49
-104 -33 -17 9 -60 37 -95 62 -75 55 -75 57 1 161 107 149 133 227 103 322
-22 68 -60 112 -150 170 -101 65 -248 186 -316 261 -68 74 -124 180 -122 233
1 42 38 197 58 246 8 18 18 31 23 29 5 -3 55 -65 112 -138z m44 -615 c44 -32
105 -76 136 -97 90 -60 122 -98 122 -143 -1 -46 -38 -132 -84 -193 -19 -25
-42 -57 -52 -72 -10 -16 -21 -28 -25 -28 -14 0 -125 142 -173 222 -84 139
-148 327 -165 479 l-6 64 83 -86 c46 -48 120 -113 164 -146z m2188 170 c3 -5
-4 -51 -15 -103 -33 -164 -116 -345 -221 -485 -75 -99 -113 -139 -125 -131
-25 15 -82 133 -82 169 0 38 13 54 134 166 57 53 113 164 122 244 8 70 15 79
84 117 53 29 94 38 103 23z m-2296 -620 c95 -135 209 -248 331 -328 23 -15 42
-32 42 -36 0 -25 -270 -166 -398 -209 -135 -45 -226 -39 -251 17 -38 83 31
300 169 528 28 47 55 85 59 85 4 0 25 -26 48 -57z"/>
</g>
</svg>
