<?xml version="1.0" standalone="no"?>
<!DOCTYPE svg PUBLIC "-//W3C//DTD SVG 20010904//EN"
 "http://www.w3.org/TR/2001/REC-SVG-20010904/DTD/svg10.dtd">
<svg version="1.0" xmlns="http://www.w3.org/2000/svg"
 width="276.000000pt" height="302.000000pt" viewBox="0 0 276.000000 302.000000"
 preserveAspectRatio="xMidYMid meet">
<metadata>
Created by potrace 1.16, written by Peter Selinger 2001-2019
</metadata>
<g transform="translate(0.000000,302.000000) scale(0.100000,-0.100000)"
fill="#000000" stroke="none">
<path d="M675 2536 c-155 -50 -272 -160 -332 -311 l-28 -70 -3 -451 c-3 -383
-1 -461 13 -519 44 -191 198 -345 383 -384 85 -18 922 -15 991 4 163 43 293
162 354 323 20 55 21 75 25 507 4 498 1 528 -54 641 -49 99 -125 173 -232 227
l-85 42 -496 2 c-382 2 -505 -1 -536 -11z m1088 -83 c123 -58 219 -181 247
-319 7 -34 10 -202 8 -490 -3 -405 -5 -443 -23 -494 -47 -133 -156 -238 -291
-280 -62 -19 -92 -20 -508 -20 -472 0 -491 2 -591 52 -64 33 -149 122 -183
191 -48 98 -52 145 -52 586 0 432 5 482 51 574 52 102 145 182 256 217 54 18
92 19 538 17 l480 -2 68 -32z"/>
<path d="M774 2011 c-45 -27 -75 -82 -77 -139 -2 -43 0 -47 22 -47 20 0 26 7
36 48 23 92 96 127 150 73 21 -21 45 -81 45 -113 0 -7 11 -13 25 -13 23 0 25
4 25 41 0 52 -23 101 -66 139 -28 24 -44 30 -82 30 -28 0 -59 -8 -78 -19z"/>
<path d="M1462 2010 c-45 -28 -72 -76 -72 -130 0 -63 27 -110 81 -138 77 -41
154 -19 207 59 30 43 27 120 -6 166 -44 61 -145 82 -210 43z m152 -71 c78 -92
-49 -215 -135 -130 -38 39 -40 96 -4 135 19 21 33 26 69 26 37 0 48 -5 70 -31z"/>
<path d="M854 1465 c-11 -29 7 -102 36 -149 37 -57 131 -120 205 -137 74 -16
199 -7 258 19 111 50 178 133 181 225 l1 52 -338 3 c-295 2 -338 0 -343 -13z
m616 -57 c0 -25 -51 -96 -88 -122 -140 -97 -361 -62 -438 69 -13 23 -24 47
-24 53 0 9 73 12 275 12 202 0 275 -3 275 -12z"/>
</g>
</svg>
