<?xml version="1.0" standalone="no"?>
<!DOCTYPE svg PUBLIC "-//W3C//DTD SVG 20010904//EN"
 "http://www.w3.org/TR/2001/REC-SVG-20010904/DTD/svg10.dtd">
<svg version="1.0" xmlns="http://www.w3.org/2000/svg"
 width="321.000000pt" height="425.000000pt" viewBox="0 0 321.000000 425.000000"
 preserveAspectRatio="xMidYMid meet">
<metadata>
Created by potrace 1.16, written by Peter Selinger 2001-2019
</metadata>
<g transform="translate(0.000000,425.000000) scale(0.100000,-0.100000)"
fill="#000000" stroke="none">
<path d="M1478 3443 c12 -2 22 -11 22 -20 0 -13 -3 -13 -15 -3 -13 11 -18 7
-32 -30 -15 -38 -18 -40 -30 -24 -7 10 -13 13 -13 8 0 -6 5 -15 10 -20 7 -7 7
-19 1 -35 -7 -18 -10 -20 -10 -6 -1 10 -6 15 -11 12 -7 -4 -7 -12 0 -25 5 -10
7 -26 3 -36 -6 -16 -7 -16 -15 2 -5 12 -6 7 -3 -18 6 -37 -9 -62 -19 -31 -3
10 -3 -6 0 -34 4 -33 2 -53 -4 -53 -6 0 -13 8 -15 18 -3 9 -3 -12 -1 -48 4
-63 4 -64 -11 -35 -14 29 -15 28 -9 -35 4 -36 10 -69 15 -74 5 -6 9 -20 9 -32
0 -13 5 -26 10 -29 13 -8 13 26 -1 81 -12 45 -5 70 11 44 5 -8 12 -11 16 -7 4
3 1 13 -6 22 -8 9 -10 25 -5 42 7 26 8 27 16 8 7 -14 8 -9 4 18 -7 44 4 71 17
41 5 -12 6 -4 3 24 -5 39 6 57 19 30 3 -7 3 10 0 37 -5 47 -4 49 11 30 16 -19
16 -17 11 30 -4 34 -3 43 3 30 5 -12 17 -27 27 -35 16 -14 17 -13 10 15 -4 17
-12 32 -17 33 -5 2 -9 13 -9 25 1 22 1 22 15 3 8 -11 15 -28 15 -38 0 -10 5
-18 10 -18 6 0 10 -8 10 -17 0 -9 8 -42 19 -72 45 -135 52 -173 48 -234 -2
-34 -2 -50 0 -34 2 15 9 27 14 27 6 0 8 -46 6 -117 -3 -65 -3 -95 0 -68 8 97
23 72 23 -39 0 -93 2 -107 15 -102 9 3 25 0 36 -7 16 -10 21 -9 28 2 5 7 14
11 20 7 7 -5 9 -1 5 9 -8 20 15 67 29 58 6 -3 7 -1 3 5 -11 18 4 37 16 21 5
-9 6 -4 2 14 -6 27 9 39 20 15 3 -7 3 -3 0 10 -6 23 10 31 20 10 3 -7 2 0 -1
16 -5 24 -3 28 9 23 11 -4 15 0 12 11 -5 18 61 100 68 86 3 -5 3 -3 1 5 -5 19
93 115 108 105 8 -4 9 -3 5 4 -4 7 9 29 30 51 31 34 41 39 65 34 18 -3 29 -1
29 6 0 6 5 11 10 11 11 0 13 -33 3 -70 l-7 -25 -8 25 c-4 14 -5 -2 -2 -37 6
-67 -5 -106 -18 -63 -4 14 -5 -6 -1 -45 3 -47 2 -67 -5 -60 -5 6 -13 19 -16
30 -3 11 -2 -8 1 -42 5 -65 -1 -79 -17 -40 -8 16 -9 8 -5 -33 6 -52 5 -54 -10
-35 -15 19 -16 18 -11 -25 3 -25 3 -37 0 -27 -10 33 -25 18 -18 -19 5 -28 4
-35 -6 -29 -9 5 -10 2 -5 -14 8 -27 -4 -48 -17 -30 -7 11 -8 9 -4 -4 8 -25 -4
-43 -16 -26 -7 10 -8 6 -4 -13 6 -25 -8 -64 -26 -78 -12 -10 -21 -60 -10 -60
6 0 17 -12 24 -27 7 -14 20 -28 28 -31 13 -3 13 -2 0 7 -8 5 -12 11 -10 13 31
20 52 27 67 22 14 -5 15 -4 4 4 -12 8 0 18 52 43 37 17 70 36 73 40 3 5 16 9
30 9 13 0 24 5 24 10 0 6 9 10 20 10 11 0 20 -4 20 -10 0 -5 -6 -10 -14 -10
-7 0 -26 -6 -40 -14 -22 -11 -24 -15 -11 -20 26 -10 35 -7 35 10 0 8 4 13 9 9
6 -3 0 -24 -12 -48 -28 -55 -27 -54 -38 -37 -7 11 -8 8 -4 -11 5 -18 -4 -43
-29 -88 -20 -35 -36 -67 -36 -72 0 -5 -4 -9 -10 -9 -5 0 -10 -5 -10 -11 0 -20
-95 -149 -107 -145 -7 3 -10 0 -8 -7 3 -7 -16 -34 -40 -62 -46 -52 -54 -78
-31 -107 12 -16 33 -18 182 -19 119 0 162 -3 145 -10 -13 -5 -96 -8 -185 -7
l-160 3 -6 25 c-5 19 -12 24 -31 22 -18 -1 -21 0 -9 7 8 6 11 13 7 17 -10 11
-37 -16 -37 -37 0 -15 7 -19 33 -19 21 0 27 -3 19 -9 -7 -4 -95 -9 -195 -10
l-182 -2 -12 28 c-7 15 -13 33 -13 40 0 17 -49 17 -54 1 -3 -7 -7 -25 -10 -40
l-6 -28 -155 0 c-89 0 -156 4 -160 10 -4 6 -13 5 -25 -2 -15 -10 -22 -10 -32
0 -9 9 -6 12 14 12 18 0 29 7 33 21 4 11 5 21 3 22 -1 1 -13 7 -24 14 -19 10
-23 8 -35 -14 -8 -14 -14 -33 -14 -42 0 -14 -21 -16 -183 -16 -100 0 -182 -3
-182 -8 0 -4 372 -7 828 -7 l827 1 20 -27 c14 -19 17 -28 8 -31 -7 -3 -13 -20
-13 -39 0 -23 4 -33 11 -28 8 4 9 -1 4 -17 -11 -34 -30 -50 -43 -37 -6 6 -19
7 -29 3 -16 -7 -15 -9 7 -15 l25 -8 -27 -1 c-16 -1 -28 4 -28 12 -1 7 -6 5
-14 -6 -13 -16 -59 -17 -765 -17 -414 0 -756 -2 -760 -5 -5 -2 -12 5 -16 18
-4 13 -8 17 -12 10 -7 -19 -34 -16 -27 2 4 8 2 15 -4 15 -5 0 -12 -13 -15 -30
-4 -19 -13 -30 -24 -30 -15 0 -15 -2 3 -15 25 -19 35 -19 27 1 -5 15 -3 15 20
-1 15 -9 26 -25 26 -34 -1 -14 -2 -13 -6 2 -2 9 -9 17 -14 17 -5 0 -9 -8 -9
-17 0 -10 -3 -36 -7 -57 -5 -31 -3 -37 7 -31 11 7 12 -10 7 -91 -6 -91 -5 -97
9 -74 14 23 15 17 10 -80 -2 -58 -2 -96 1 -85 3 11 9 25 15 30 7 7 8 -23 5
-90 -3 -55 -3 -90 -1 -78 3 13 10 23 16 23 6 0 8 -34 5 -97 -3 -54 -3 -88 -1
-76 7 29 26 30 22 1 -2 -11 2 -23 9 -25 12 -4 31 182 19 194 -3 4 -6 -11 -7
-33 0 -36 -1 -37 -11 -16 -8 15 -8 45 -2 98 6 41 6 78 2 80 -4 3 -8 -10 -9
-28 l-1 -33 -10 39 c-8 28 -7 53 1 88 6 27 11 58 11 69 0 30 -20 12 -22 -19 0
-15 -4 -4 -7 23 -4 28 -3 65 2 83 5 18 6 45 4 60 -4 26 -4 26 -13 -8 l-9 -35
-5 50 c-3 28 -1 69 5 93 l10 42 745 0 c410 0 755 -3 768 -6 18 -5 22 -13 22
-50 0 -51 -17 -59 -23 -11 -3 17 -3 -17 0 -78 4 -75 2 -107 -5 -100 -6 6 -13
21 -15 35 -3 14 -3 -19 0 -72 5 -98 1 -118 -17 -75 -7 15 -8 -10 -5 -78 4 -71
2 -93 -4 -77 -6 12 -13 22 -16 22 -3 0 -3 -44 -1 -97 3 -54 3 -88 0 -76 -3 13
-10 23 -16 23 -7 0 -8 -19 -3 -55 5 -46 4 -55 -9 -55 -18 0 -21 -15 -6 -25 6
-3 10 -13 10 -21 0 -8 -4 -14 -10 -14 -5 0 -10 7 -10 15 0 13 -79 15 -654 15
l-654 0 -6 23 c-3 12 -6 33 -7 47 -1 16 -4 10 -8 -15 -5 -36 -9 -40 -32 -37
-23 2 -26 -1 -25 -32 2 -40 13 -56 22 -32 3 9 12 16 19 16 7 0 15 6 18 13 2 7
8 8 13 3 5 -5 4 -11 -3 -13 -17 -6 -17 -30 0 -37 6 -3 2 -3 -10 0 -13 3 -23 1
-23 -5 0 -5 -3 -18 -6 -28 -4 -13 -3 -14 4 -5 13 18 53 -46 46 -74 -3 -12 2
-23 15 -31 17 -11 19 -10 15 2 -9 22 7 18 45 -9 22 -16 28 -26 19 -30 -7 -3
-2 -5 12 -4 14 1 34 0 45 -1 l20 -2 -20 -9 c-12 -5 201 -9 500 -9 301 0 514 3
506 8 -11 7 -10 10 6 15 11 4 29 4 39 0 15 -5 16 -4 4 4 -12 9 -9 13 14 21 15
6 44 27 64 46 26 24 39 30 45 22 4 -7 5 0 1 16 -6 27 9 39 19 15 3 -7 3 2 0
20 -3 20 -1 32 6 32 6 0 11 -6 11 -12 1 -7 7 5 15 27 11 29 14 67 10 140 -5
94 -4 98 9 65 l14 -35 1 35 c0 19 -4 58 -8 86 -4 29 -4 60 0 70 7 17 8 17 8 2
1 -21 21 -25 21 -4 0 7 -5 27 -11 45 -7 20 -8 49 -3 79 7 44 8 45 13 17 5 -22
8 -26 13 -14 4 9 2 34 -3 55 -11 51 -11 134 0 134 6 0 12 -15 14 -32 3 -18 3
17 0 77 -3 61 -10 113 -15 116 -6 4 -6 9 2 14 16 10 20 3 30 -52 l8 -48 1 41
c1 25 8 47 17 55 14 12 14 14 -2 26 -16 12 -16 13 -1 13 9 0 26 14 39 30 12
17 24 26 27 21 3 -5 6 24 6 64 0 40 -3 68 -7 62 -4 -7 -10 -4 -14 8 -9 25 -42
54 -72 66 -13 5 -90 9 -172 9 -88 0 -151 4 -155 10 -3 6 -1 10 4 10 6 0 11 7
11 16 0 8 -4 12 -10 9 -5 -3 -10 1 -10 9 0 9 4 16 9 16 5 0 13 9 16 20 5 16
12 19 28 15 16 -5 18 -4 8 3 -12 9 -10 15 10 39 13 16 40 54 59 86 19 31 38
57 42 57 4 0 8 7 8 15 0 8 5 15 10 15 6 0 10 6 10 13 0 7 9 23 20 35 11 12 20
26 20 33 0 8 5 7 16 -2 15 -12 16 -11 9 10 -9 29 14 78 27 59 6 -8 7 -5 3 9
-9 31 6 53 17 27 6 -14 7 -12 3 9 -7 35 5 58 16 31 5 -11 6 -4 3 19 -6 38 10
54 19 20 3 -10 3 2 0 27 -4 42 -3 44 11 26 13 -16 16 -17 16 -4 0 22 -19 35
-65 41 -26 4 -33 4 -20 -2 18 -7 16 -10 -19 -25 -22 -9 -49 -14 -60 -11 -14 4
-17 3 -8 -3 14 -10 -76 -55 -99 -49 -8 2 -11 2 -6 0 4 -3 7 -8 7 -11 0 -10
-60 -35 -67 -28 -3 3 2 8 11 12 22 9 20 24 -4 24 -11 0 -20 -5 -20 -12 0 -6
-3 -9 -6 -6 -8 9 15 50 25 44 4 -3 7 5 7 17 -1 12 4 21 10 20 7 -1 9 8 6 22
-4 26 12 35 21 13 3 -7 3 2 0 20 -5 31 9 46 21 20 3 -7 3 -1 0 14 -6 25 15
106 37 150 5 10 9 29 9 42 0 30 17 43 24 19 2 -10 2 -1 -1 19 -3 21 -2 46 2
55 7 16 9 15 15 -7 4 -14 6 7 3 45 -4 48 -2 67 5 60 6 -5 12 -21 15 -35 3 -14
3 16 1 65 -3 89 -3 89 11 50 14 -39 14 -37 9 50 -4 50 -8 92 -10 94 -2 2 -18
5 -35 6 -19 2 -27 0 -19 -5 9 -6 -5 -25 -50 -66 -119 -110 -136 -129 -224
-234 -56 -67 -94 -104 -105 -102 -13 2 -13 1 -2 -6 11 -8 5 -22 -26 -68 -22
-33 -43 -66 -47 -74 -3 -8 -4 -1 -2 16 3 17 1 35 -4 40 -4 5 -10 20 -13 34 -3
18 -5 14 -6 -13 0 -24 -5 -36 -12 -32 -6 5 -8 43 -5 108 3 56 2 93 -3 83 -12
-31 -20 -5 -12 41 8 44 -2 82 -13 47 -3 -10 -4 5 -2 34 3 52 -7 79 -18 45 -3
-10 -3 6 -1 35 4 49 3 53 -12 40 -14 -12 -15 -8 -9 37 7 46 6 49 -8 30 -15
-20 -15 -20 -16 2 0 12 -4 25 -10 28 -5 3 -10 14 -10 25 0 10 -10 37 -22 60
-18 33 -20 45 -11 59 14 23 -1 42 -31 40 -19 -2 -19 -2 2 -6z m631 -2692 c7
-5 10 -14 7 -20 -4 -6 -2 -11 3 -11 6 0 11 7 11 15 0 8 5 15 10 15 16 0 12
-20 -12 -53 -44 -63 -85 -89 -130 -82 -28 5 -30 4 -10 -4 12 -6 22 -12 22 -13
0 -2 -238 -3 -530 -3 -291 0 -530 3 -530 7 0 3 6 9 13 11 6 2 -1 3 -17 1 -51
-7 -135 73 -121 115 3 11 14 22 23 24 33 9 1247 7 1261 -2z"/>
<path d="M732 3185 c0 -44 3 -64 5 -45 3 19 9 39 14 45 6 5 8 -27 6 -85 -2
-52 -1 -81 2 -65 5 25 8 27 14 12 10 -26 9 -65 -3 -87 -7 -13 -7 -21 0 -25 5
-3 10 2 11 12 0 10 4 5 10 -11 5 -19 4 -34 -2 -43 -6 -7 -8 -21 -4 -30 7 -17
8 -16 16 2 6 14 8 2 4 -35 -5 -53 -4 -54 11 -30 14 24 15 23 9 -30 -6 -52 -5
-54 10 -35 15 19 16 18 11 -25 -3 -25 -3 -37 0 -27 11 35 26 17 20 -25 -4 -27
-3 -36 2 -24 12 28 24 4 16 -31 -4 -19 -3 -24 4 -14 12 17 24 -1 15 -25 -5
-13 -3 -15 7 -9 10 6 11 2 6 -19 -6 -26 8 -37 17 -13 3 6 6 3 6 -9 1 -11 -8
-29 -19 -39 -19 -17 -22 -16 -89 15 -39 18 -68 36 -66 40 2 4 -7 5 -20 2 -26
-4 -35 12 -12 21 6 3 -2 3 -19 0 -18 -3 -35 0 -38 6 -4 6 -16 11 -27 11 -14 0
-19 -7 -19 -24 0 -14 5 -28 11 -31 6 -4 8 -20 4 -38 -4 -21 -3 -27 3 -18 7 10
17 -2 39 -45 38 -75 70 -132 94 -166 11 -14 19 -31 19 -36 0 -6 3 -12 8 -14 4
-1 20 -22 35 -46 19 -29 26 -50 22 -65 -5 -17 -4 -19 4 -7 5 8 11 12 13 10 2
-3 25 -31 52 -63 39 -46 46 -60 36 -72 -14 -17 -5 -35 18 -36 14 0 13 -2 -3
-9 -11 -5 -85 -9 -165 -9 -182 1 -203 -7 -244 -86 -9 -17 -16 -24 -16 -17 0 6
-4 12 -10 12 -6 0 -10 -26 -10 -57 1 -53 2 -56 15 -39 15 19 15 19 15 -1 0
-12 5 -25 11 -28 6 -4 8 -13 5 -21 -3 -8 0 -11 10 -7 7 3 14 0 14 -6 0 -6 -5
-11 -12 -11 -6 0 -9 -3 -6 -6 4 -3 16 -1 27 6 l21 11 -20 27 c-13 17 -20 45
-21 77 -4 107 28 124 246 127 l160 3 13 28 c12 26 11 30 -15 60 -15 18 -41 50
-58 71 -16 21 -35 44 -42 51 -20 21 -103 153 -103 164 0 6 -5 11 -11 11 -8 0
-9 11 -5 33 4 22 3 27 -3 17 -6 -8 -11 -12 -13 -10 -10 15 -70 133 -78 155
-12 32 7 35 20 3 7 -18 9 -19 9 -5 1 9 9 17 19 18 13 0 13 2 -4 9 -12 5 -25
14 -29 20 -5 8 -10 8 -20 0 -9 -8 -14 -6 -19 5 -9 25 27 18 106 -22 107 -54
122 -64 106 -75 -8 -5 -3 -6 15 -2 26 6 40 -10 16 -18 -7 -2 4 -4 25 -4 22 0
36 5 36 12 0 7 9 15 19 19 12 4 18 12 14 21 -3 8 0 21 7 29 8 9 8 15 2 15 -6
0 -12 -6 -15 -12 -7 -22 -48 72 -44 100 2 15 2 21 0 15 -10 -30 -25 -11 -20
25 3 20 3 29 1 20 -10 -35 -26 -19 -20 20 3 22 2 29 -3 18 -11 -28 -25 -2 -17
32 4 17 3 22 -2 14 -13 -20 -24 12 -16 46 4 19 3 23 -4 13 -7 -10 -12 -5 -20
20 -19 62 -22 88 -12 94 5 3 10 16 10 28 -1 21 -1 21 -16 -3 -14 -23 -15 -20
-10 55 2 44 2 71 -1 60 -3 -11 -10 -24 -15 -30 -7 -7 -9 10 -4 55 3 36 10 66
15 68 5 2 6 13 3 25 l-5 22 24 -20 c13 -11 30 -29 39 -40 8 -11 28 -32 45 -47
81 -73 115 -107 151 -153 21 -27 42 -51 47 -53 4 -2 7 -10 7 -17 0 -7 4 -15 9
-17 11 -4 73 -103 92 -145 15 -35 35 -41 70 -23 14 8 19 22 19 53 0 26 4 36 8
27 5 -8 6 -41 4 -72 -3 -46 -7 -56 -19 -51 -9 4 -22 -2 -30 -13 -12 -16 -15
-17 -23 -4 -7 11 -10 11 -10 2 0 -20 20 -53 29 -48 5 3 6 -26 4 -65 -3 -49 -1
-69 6 -64 6 3 12 16 12 28 1 12 5 4 8 -18 4 -22 3 -50 -1 -63 -4 -13 -8 -33
-7 -45 1 -19 2 -18 15 8 14 29 15 26 11 -45 -3 -41 -2 -64 0 -51 3 13 11 30
18 37 12 13 31 132 21 141 -3 3 -9 -10 -14 -28 -7 -24 -9 34 -9 191 2 297 0
332 -23 382 l-20 43 5 -35 c8 -50 11 -114 6 -124 -2 -5 -10 4 -17 20 l-12 29
-1 -26 c-1 -15 3 -49 8 -76 6 -29 6 -62 1 -79 l-8 -29 -1 28 c-1 30 -28 48
-41 27 -12 -19 -33 25 -25 53 5 17 4 19 -4 7 -8 -11 -13 -12 -18 -4 -10 15
-54 72 -73 94 -8 10 -31 38 -49 62 -40 50 -208 218 -267 265 -29 25 -36 35
-26 41 9 6 4 9 -17 8 l-31 -1 2 -80z"/>
<path d="M1633 2613 c-29 -6 -38 -62 -28 -191 4 -64 3 -94 -3 -87 -6 6 -13 19
-16 30 -3 11 -3 -11 0 -50 4 -66 4 -69 -11 -45 -15 24 -15 22 -9 -35 6 -56 5
-59 -10 -40 -15 19 -15 17 -11 -30 2 -27 2 -42 -1 -32 -3 9 -10 15 -14 12 -5
-3 -6 -16 -1 -28 5 -12 5 -31 1 -42 l-7 -20 -6 20 c-4 11 -4 3 -1 -17 2 -20 0
-39 -6 -43 -5 -3 -10 0 -10 7 0 7 -8 4 -21 -9 -15 -15 -19 -27 -14 -40 6 -16
8 -15 17 7 6 15 12 20 15 13 3 -7 10 -13 18 -13 7 0 18 -7 25 -15 10 -12 10
-18 0 -30 -10 -13 -10 -19 5 -35 16 -18 31 -20 151 -20 78 0 135 4 139 10 4 6
-38 10 -119 10 -114 0 -159 9 -121 24 8 3 15 12 15 21 0 8 5 15 12 15 6 0 9 3
5 6 -3 4 -18 -3 -33 -15 -59 -47 -31 -7 58 81 52 51 105 107 119 123 13 17 41
51 62 77 20 25 37 54 37 64 0 16 -1 16 -18 -2 -10 -10 -23 -26 -28 -35 -33
-56 -160 -186 -178 -181 -6 2 -8 0 -3 -4 8 -9 -51 -74 -67 -74 -6 1 0 10 13
21 16 13 21 23 14 27 -6 4 -14 30 -18 57 -7 47 -6 49 9 30 15 -19 16 -16 11
40 -2 33 -2 52 1 43 12 -38 23 -15 18 35 -4 35 -2 47 4 38 14 -20 22 8 10 33
-6 10 -7 35 -2 55 7 35 7 35 15 11 5 -16 7 2 4 48 -4 57 -2 72 9 72 7 0 16 10
19 23 3 12 9 32 12 45 6 18 4 21 -9 16 -11 -4 -16 -1 -16 10 0 9 -3 15 -7 15
-5 -1 -18 -4 -30 -6z"/>
<path d="M1040 2412 c0 -16 -5 -22 -17 -20 -11 2 -19 -7 -24 -26 -5 -17 -7
-30 -6 -30 1 -1 15 -12 30 -26 22 -19 30 -21 36 -11 6 9 14 2 30 -24 12 -20
19 -41 16 -46 -4 -5 0 -7 7 -4 19 6 104 -102 100 -128 -1 -15 1 -18 6 -9 6 9
31 -9 91 -68 62 -61 75 -79 56 -74 -20 5 -24 3 -19 -10 3 -9 14 -16 23 -16 14
0 14 -2 1 -10 -8 -5 -70 -10 -137 -10 -75 0 -123 -4 -123 -10 0 -6 55 -10 144
-10 157 0 156 0 156 60 0 16 8 33 20 41 11 8 23 30 26 49 6 34 6 34 -10 15
-16 -19 -16 -18 -12 30 3 28 3 42 0 33 -11 -36 -26 -18 -20 25 4 26 3 35 -2
23 -13 -31 -23 -3 -17 46 4 29 2 36 -3 23 -9 -20 -9 -20 -16 2 -4 12 -1 30 6
42 10 16 10 23 0 33 -9 9 -12 8 -12 -9 0 -12 -4 -23 -9 -25 -4 -1 -11 -32 -14
-68 -3 -36 -3 -55 0 -42 2 12 9 22 15 22 7 0 8 -18 5 -52 -4 -33 -3 -46 2 -33
8 18 9 19 16 2 10 -24 -11 -46 -38 -40 -20 5 -20 3 7 -26 17 -17 26 -31 22
-31 -11 0 -159 151 -206 210 -19 23 -47 58 -62 75 -31 36 -39 67 -13 45 10 -9
15 -9 15 -1 0 6 -4 11 -10 11 -5 0 -10 5 -10 11 0 5 -11 27 -25 47 -22 32 -25
34 -25 14z"/>
</g>
</svg>
